<svg xmlns="http://www.w3.org/2000/svg" preserveAspectRatio="xMidYMid" version="1.0" viewBox="0 0 750 187.5"><path fill="#875748" fill-opacity=".4" d="M36.628 100.78c0-8.32 1.692-15.609 5.078-21.859Q46.8 69.546 55.8 64.391q9.012-5.157 20.625-5.157 14.967.001 24.766 7.484 9.809 7.488 13.156 21H92.409c-1.156-3.488-3.117-6.222-5.875-8.203q-4.143-2.983-10.25-2.984-8.72 0-13.812 6.328-5.08 6.314-5.078 17.922-.001 11.484 5.078 17.812 5.093 6.315 13.812 6.313 12.359.002 16.125-11.047h21.938q-3.346 13.08-13.219 20.781-9.879 7.704-24.703 7.703-11.613 0-20.625-5.156-9.001-5.156-14.094-14.531-5.079-9.374-5.078-21.875M165.054 142.343c-7.75 0-14.727-1.719-20.922-5.156q-9.3-5.155-14.61-14.594-5.296-9.45-5.296-21.812 0-12.342 5.437-21.782 5.45-9.451 14.89-14.609 9.454-5.156 21.079-5.156t21.062 5.156q9.452 5.158 14.891 14.61 5.451 9.44 5.453 21.78-.002 12.363-5.594 21.813-5.594 9.438-15.109 14.594t-21.281 5.156m0-17.734q5.513 0 10.375-2.688 4.875-2.683 7.781-8.062 2.906-5.374 2.906-13.078 0-11.467-6.03-17.64c-4.024-4.114-8.938-6.173-14.75-6.173q-8.708.001-14.595 6.172c-3.93 4.117-5.89 9.996-5.89 17.64q-.001 11.487 5.734 17.657 5.749 6.174 14.469 6.172m0 0"/><path fill="#9e6b57" d="M30.207 94.36c0-8.32 1.692-15.61 5.078-21.86q5.093-9.375 14.094-14.53 9.012-5.157 20.625-5.157 14.967.001 24.766 7.484 9.809 7.488 13.156 21H85.988c-1.156-3.488-3.117-6.222-5.875-8.203q-4.143-2.983-10.25-2.984-8.72 0-13.812 6.328-5.08 6.315-5.078 17.922-.001 11.484 5.078 17.812 5.093 6.315 13.812 6.313 12.359.002 16.125-11.047h21.938q-3.346 13.08-13.219 20.781-9.879 7.704-24.703 7.703-11.613 0-20.625-5.156-9.001-5.156-14.094-14.531-5.078-9.374-5.078-21.875M158.633 135.922c-7.75 0-14.727-1.718-20.922-5.156q-9.3-5.154-14.61-14.594-5.296-9.45-5.296-21.812 0-12.341 5.437-21.781 5.45-9.452 14.89-14.61 9.454-5.156 21.08-5.156 11.624 0 21.062 5.156 9.451 5.158 14.89 14.61 5.451 9.44 5.453 21.78-.002 12.364-5.593 21.813-5.594 9.439-15.11 14.594-9.516 5.156-21.281 5.156m0-17.734q5.513 0 10.375-2.688 4.875-2.683 7.781-8.062 2.906-5.373 2.906-13.078 0-11.467-6.03-17.64c-4.024-4.114-8.938-6.173-14.75-6.173q-8.707.001-14.595 6.172c-3.93 4.117-5.89 9.996-5.89 17.64q-.001 11.487 5.734 17.657 5.749 6.174 14.469 6.172m0 0"/><path fill="#875748" fill-opacity=".4" d="M216.78 100.78c0-8.32 1.692-15.609 5.079-21.859q5.092-9.375 14.093-14.53 9.012-5.157 20.625-5.157c9.977 0 18.235 2.496 24.766 7.484q9.81 7.488 13.156 21h-21.937q-1.737-5.232-5.875-8.203-4.144-2.983-10.25-2.984-8.72 0-13.813 6.328-5.079 6.314-5.078 17.922 0 11.484 5.078 17.812 5.093 6.315 13.813 6.313 12.357.002 16.125-11.047h21.937q-3.345 13.08-13.219 20.781-9.878 7.704-24.703 7.703-11.613 0-20.625-5.156-9.001-5.156-14.093-14.531-5.08-9.374-5.079-21.875M345.206 142.343q-11.626 0-20.922-5.156-9.3-5.155-14.609-14.594-5.297-9.45-5.297-21.812 0-12.342 5.438-21.782 5.45-9.451 14.89-14.609 9.452-5.156 21.078-5.156 11.624 0 21.063 5.156 9.451 5.158 14.89 14.61c3.633 6.292 5.454 13.554 5.454 21.78 0 8.243-1.868 15.512-5.594 21.813q-5.594 9.438-15.11 14.594t-21.28 5.156m0-17.734q5.513 0 10.375-2.688 4.875-2.683 7.781-8.062 2.907-5.374 2.907-13.078-.001-11.467-6.032-17.64c-4.023-4.114-8.937-6.173-14.75-6.173q-8.706.001-14.593 6.172c-3.93 4.117-5.89 9.996-5.89 17.64q0 11.487 5.733 17.657 5.75 6.174 14.47 6.172M396.924 100.5q-.002-12.2 4.86-21.641 4.873-9.451 13.297-14.531 8.42-5.093 18.75-5.094 7.839 0 14.953 3.422c4.75 2.273 8.523 5.297 11.328 9.078V33.515h20.64v107.516h-20.64v-11.907q-3.768 5.955-10.594 9.594c-4.555 2.414-9.836 3.625-15.844 3.625-6.78 0-12.98-1.742-18.593-5.234-5.618-3.488-10.047-8.406-13.297-14.75q-4.862-9.515-4.86-21.86m63.344.28q0-7.405-2.906-12.702-2.909-5.297-7.844-8.125-4.938-2.843-10.61-2.844c-3.78 0-7.273.922-10.468 2.765q-4.781 2.754-7.766 8.063c-1.992 3.531-2.984 7.719-2.984 12.562q-.002 7.267 2.984 12.72 2.982 5.436 7.844 8.343 4.873 2.906 10.39 2.906 5.672.001 10.61-2.828 4.936-2.843 7.844-8.14 2.906-5.297 2.906-12.72M510.97 50.953c-3.587 0-6.563-1.133-8.938-3.407q-3.563-3.42-3.563-8.5 0-5.09 3.563-8.5c2.375-2.28 5.351-3.422 8.937-3.422q5.372 0 8.922 3.422 3.563 3.41 3.563 8.5 0 5.08-3.563 8.5-3.55 3.409-8.922 3.407m10.015 9.593v80.485h-20.328V60.546zM585.638 59.39q14.39 0 23.25 9.078c5.906 6.055 8.86 14.5 8.86 25.344v47.219h-20.345V96.578q-.001-9.594-4.797-14.75-4.781-5.157-13.062-5.157-8.438 0-13.313 5.157-4.861 5.156-4.859 14.75v44.453h-20.328V60.546h20.328v10.016q4.077-5.216 10.39-8.188 6.329-2.983 13.876-2.984M668.588 59.234q9.012 0 15.844 3.562 6.825 3.564 10.75 9.22v-11.47h20.484v81.063c0 7.457-1.508 14.113-4.516 19.969q-4.501 8.795-13.515 13.953-9.001 5.156-21.781 5.156c-11.43 0-20.797-2.664-28.11-7.984q-10.968-7.987-12.422-21.797h20.188c1.07 3.687 3.375 6.617 6.906 8.797q5.295 3.264 12.86 3.265 8.857-.002 14.374-5.312 5.532-5.3 5.532-16.047v-12.485q-3.926 5.66-10.828 9.438-6.908 3.78-15.766 3.781c-6.781 0-12.98-1.742-18.594-5.234q-8.424-5.233-13.297-14.75-4.861-9.515-4.86-21.86-.001-12.2 4.86-21.64 4.875-9.451 13.22-14.531c5.57-3.395 11.796-5.094 18.67-5.094m26.594 41.547q0-7.407-2.907-12.703-2.908-5.297-7.843-8.125-4.938-2.843-10.61-2.844c-3.78 0-7.273.922-10.468 2.765q-4.783 2.754-7.766 8.063-2.986 5.297-2.984 12.562c0 4.844.992 9.086 2.984 12.72q2.982 5.436 7.844 8.343c3.25 1.937 6.71 2.906 10.39 2.906q5.672.001 10.61-2.828 4.936-2.843 7.843-8.14t2.907-12.72m0 0"/><path fill="#875748" d="M210.36 94.36c0-8.32 1.69-15.61 5.078-21.86q5.092-9.375 14.093-14.53 9.012-5.157 20.625-5.157c9.977 0 18.235 2.496 24.766 7.484q9.81 7.488 13.156 21h-21.937c-1.156-3.488-3.117-6.222-5.875-8.203q-4.144-2.983-10.25-2.984-8.72 0-13.813 6.328-5.078 6.315-5.078 17.922 0 11.484 5.078 17.812 5.093 6.315 13.813 6.313 12.357.002 16.125-11.047h21.937q-3.345 13.08-13.218 20.781-9.879 7.704-24.704 7.703-11.613 0-20.625-5.156-9.001-5.156-14.093-14.531-5.08-9.374-5.078-21.875M338.785 135.922q-11.626 0-20.922-5.156-9.3-5.154-14.609-14.594-5.297-9.45-5.297-21.812 0-12.341 5.438-21.781 5.45-9.452 14.89-14.61 9.452-5.156 21.078-5.156 11.624 0 21.063 5.156 9.452 5.158 14.89 14.61c3.633 6.293 5.454 13.554 5.454 21.78 0 8.243-1.868 15.513-5.594 21.813q-5.595 9.439-15.11 14.594-9.515 5.156-21.28 5.156m0-17.734q5.513 0 10.375-2.688 4.875-2.683 7.782-8.062 2.906-5.373 2.906-13.078-.001-11.467-6.031-17.64c-4.024-4.114-8.938-6.173-14.75-6.173q-8.706.001-14.594 6.172c-3.93 4.117-5.89 9.996-5.89 17.64q-.001 11.487 5.734 17.657 5.749 6.174 14.468 6.172M390.503 94.079q-.002-12.2 4.86-21.641 4.873-9.451 13.297-14.531 8.42-5.093 18.75-5.094 7.839 0 14.953 3.422c4.75 2.273 8.523 5.297 11.328 9.078V27.094h20.64V134.61h-20.64v-11.906q-3.768 5.954-10.594 9.593c-4.554 2.414-9.836 3.625-15.844 3.625-6.78 0-12.98-1.742-18.593-5.234q-8.424-5.233-13.297-14.75-4.862-9.515-4.86-21.86m63.344.28q0-7.405-2.906-12.702-2.909-5.297-7.844-8.125-4.938-2.843-10.61-2.844c-3.78 0-7.273.922-10.468 2.766q-4.781 2.753-7.766 8.062c-1.992 3.531-2.984 7.719-2.984 12.563q-.002 7.266 2.984 12.718 2.982 5.438 7.844 8.344 4.873 2.907 10.39 2.906 5.672.001 10.61-2.828 4.936-2.843 7.844-8.14 2.906-5.297 2.906-12.72M504.548 44.532c-3.586 0-6.562-1.133-8.937-3.407q-3.563-3.42-3.563-8.5 0-5.09 3.563-8.5c2.375-2.28 5.351-3.421 8.937-3.421q5.372 0 8.922 3.421 3.563 3.41 3.563 8.5 0 5.08-3.563 8.5-3.55 3.409-8.922 3.407m10.016 9.593v80.485h-20.328V54.125zM579.217 52.97q14.391.001 23.25 9.077c5.906 6.055 8.86 14.5 8.86 25.344v47.219h-20.345V90.157q-.002-9.594-4.796-14.75-4.782-5.157-13.063-5.157-8.437 0-13.312 5.157c-3.243 3.437-4.86 8.355-4.86 14.75v44.453h-20.328V54.125h20.328v10.016q4.077-5.216 10.39-8.187 6.33-2.984 13.876-2.985M662.167 52.813q9.013 0 15.844 3.562 6.825 3.564 10.75 9.22v-11.47h20.484v81.063c0 7.457-1.508 14.113-4.516 19.969q-4.501 8.795-13.515 13.953-9.001 5.156-21.781 5.156c-11.43 0-20.797-2.664-28.11-7.984q-10.968-7.987-12.422-21.797h20.188c1.07 3.687 3.375 6.617 6.906 8.797q5.296 3.264 12.86 3.265 8.857-.002 14.374-5.312c3.688-3.531 5.532-8.883 5.532-16.047v-12.484q-3.926 5.659-10.828 9.437-6.908 3.78-15.766 3.781c-6.781 0-12.98-1.742-18.594-5.234q-8.424-5.233-13.297-14.75-4.861-9.515-4.859-21.86c0-8.132 1.617-15.347 4.86-21.64q4.875-9.451 13.218-14.531c5.57-3.395 11.797-5.094 18.672-5.094m26.594 41.547q0-7.407-2.907-12.703-2.908-5.297-7.843-8.125-4.938-2.843-10.61-2.844c-3.78 0-7.273.922-10.468 2.766q-4.783 2.753-7.766 8.062-2.986 5.297-2.984 12.563c0 4.843.992 9.085 2.984 12.718q2.982 5.438 7.844 8.344c3.25 1.938 6.71 2.906 10.39 2.906q5.672.001 10.61-2.828c3.289-1.894 5.906-4.61 7.843-8.14q2.907-5.297 2.907-12.72m0 0"/></svg>